PathFileType	4	(X/Y/Z)	C:\Users\°ÂÌØÂü\Desktop\20210112\bx_n_0_501-Unnamed.trc
DataRate	CameraRate	NumFrames	NumMarkers	Units	OrigDataRate	OrigDataStartFrame	OrigNumFrames
50.00	50.00	       4	0	mm	50.00	170	       339
Frame#	Time	
		

170	3.380	-286.95047	113.59382	1665.78320	-771.41022	272.61914	739.20087	-446.40024	274.93478	1409.63477	-485.42334	96.07800	1199.83569	-783.28278	280.58133	873.39899	-757.95050	-22.55616	206.75497	-704.79358	19.48491	526.20752	-790.69977	252.94962	635.70111	-679.93921	156.43613	160.36375	-678.31885	-5.67193	809.73346	-804.92633	261.74640	494.15948	-548.19550	211.67328	163.82173	-546.09558	-10.53739	161.54739	-755.95343	137.83775	571.78656	-600.81781	38.85036	165.80838	-677.63000	56.81398	159.32800	-797.51257	183.00131	182.99495	-764.35358	225.50558	203.92361	-590.15198	182.92705	173.25293	-882.57965	296.26184	144.78772	-778.06921	246.35483	571.86591	-640.57208	274.10385	159.05609	-601.89972	274.82126	158.83119	-528.22430	303.95291	146.25700	-418.20493	-78.22587	1398.60034	-871.93689	86.95393	1100.39783	-683.07697	209.48151	794.78009	-745.37988	75.41351	576.74377	-794.37738	32.35764	174.53513	-785.71033	-50.52088	484.03653	-876.12219	-78.89765	141.41621	-727.54242	68.16997	216.84239				-754.62726	-37.11185	615.97583	-754.94965	-33.59926	567.76831	-723.53845	145.17627	220.32747				-599.59393	-62.10864	157.59598	-641.39954	-59.63538	163.12573	-762.98126	-65.97115	753.56506	-517.94177	-72.92817	143.09164							-688.08356	-11.02740	1015.72260	-686.56329	230.95381	1035.33313				-725.81818	196.53836	537.01373	-764.45660	-78.58408	870.82782	
171	3.400	-291.41519	113.30701	1669.20129	-771.71997	272.14584	739.15961	-449.23691	274.88623	1411.57898	-487.55621	95.82149	1201.58459	-783.42114	280.74493	873.62732	-757.72583	-22.68890	206.27701	-704.85358	19.16136	526.48065	-790.89709	252.65584	635.74634	-679.71967	156.23488	160.66508	-678.28815	-5.86824	809.82159	-805.36115	261.81857	494.35861	-548.01459	211.80598	163.44122	-546.30823	-10.76470	161.40662	-755.96277	137.89285	571.86316	-600.93726	38.83423	166.14632	-677.63000	56.81398	159.32800	-797.25458	182.80710	182.86487	-764.34607	225.62936	204.04828	-590.29327	182.93825	173.42656	-882.76636	296.18619	144.58238	-778.42010	246.19101	571.78375	-640.57208	274.10385	159.05609	-601.69965	275.01764	158.82217	-528.20795	303.80432	146.30266	-420.49164	-78.20725	1401.21362	-872.37189	86.83455	1100.01160	-683.25427	209.46568	794.73889	-745.21307	75.25632	576.73724	-794.34521	32.26702	174.78235	-786.05426	-50.60496	483.97397	-875.78070	-78.64841	140.93260	-727.44031	68.21047	216.38728				-754.89264	-37.22084	616.06158	-755.14490	-33.48808	567.59564	-723.77332	145.09369	220.16327				-599.42841	-62.18716	157.71077	-641.28528	-59.77873	163.14240	-763.21820	-66.16318	753.63745	-517.89923	-72.90125	143.28708							-688.31293	-11.71312	1016.47693	-686.69824	230.59567	1035.62646				-725.85803	196.55074	537.09521	-764.47186	-78.61516	870.77423	
172	3.420	-295.78400	113.46260	1672.26819	-771.90015	272.20490	739.58142	-452.19473	274.58105	1413.97107	-488.99008	95.77659	1203.59485	-783.51807	280.42822	873.45258	-757.72583	-22.68890	206.27701	-704.85358	19.16136	526.48065	-791.20728	252.37566	635.84778	-679.63867	156.13190	160.35982	-678.54926	-6.16019	809.93311	-805.37225	261.67615	494.05600	-548.07196	211.72296	163.76083	-546.23651	-10.50212	161.88890	-755.95343	137.83775	571.78656	-600.86383	38.73248	166.00801	-677.72815	56.92001	159.37260	-797.43842	182.81017	182.96095	-764.35358	225.50558	203.92361	-590.12616	183.06059	173.41615	-882.77521	296.18719	144.59406	-778.45795	246.14595	571.82233	-640.57208	274.10385	159.05609	-601.65936	275.03168	159.05339	-528.21393	303.90378	146.26039	-423.72247	-78.39001	1403.61768	-873.22644	86.29087	1099.41479	-683.41907	209.39894	794.90704	-745.49915	74.86280	576.40698	-794.36584	32.39194	174.62144	-786.22711	-50.62368	483.99380				-727.52747	67.93372	216.66721	-876.12219	-78.89765	141.41621	-755.07227	-37.45425	615.86603	-755.07562	-33.62882	567.59412	-723.67737	145.26419	220.19156				-599.42841	-62.18716	157.71077	-641.39954	-59.63538	163.12573	-763.39178	-65.90769	753.53534	-518.00769	-72.99992	143.10075							-688.62238	-11.81089	1016.97943	-686.95135	230.42575	1035.96545				-725.92993	196.44424	537.07190	-764.41583	-78.90257	870.96246	
173	3.440	-300.08539	113.27734	1675.77271	-772.12335	271.93234	739.40820	-455.56277	274.54300	1416.18726	-490.77762	95.52477	1205.60864	-783.46686	280.18225	873.45459	-757.72583	-22.68890	206.27701	-704.21820	18.73040	526.34192	-791.54956	252.45824	635.96033	-679.70038	156.04497	160.57922	-678.39532	-6.47743	810.10657	-805.43414	261.54520	494.21530	-548.06299	211.77477	163.85442	-546.29407	-10.46484	161.67088	-755.91602	137.72397	571.76825	-600.88843	38.81111	166.03583	-677.72815	56.92001	159.37260	-797.38080	182.92648	182.94344	-764.35358	225.50558	203.92361	-590.11774	183.11192	173.43832	-882.75586	296.10339	144.51614	-778.53442	245.91164	571.95721	-640.57208	274.10385	159.05609	-601.81171	274.95877	158.99542	-528.12152	303.98355	146.23151	-426.17084	-78.39684	1406.62793	-873.78900	86.08121	1099.44983	-683.30878	209.20514	794.86243	-745.49915	74.86280	576.40698	-794.27118	32.40074	174.54965	-786.19025	-50.84425	484.01730				-727.34015	68.11090	216.92168	-876.14905	-78.79788	141.54057	-755.07227	-37.45425	615.86603	-755.09863	-33.66899	567.51245	-723.63440	145.00578	220.29918				-599.59393	-62.10864	157.59598	-641.40997	-59.77600	163.02507	-763.46838	-66.05976	753.61365	-517.94177	-72.92817	143.09164							-688.75232	-11.99396	1017.45764	-687.08002	230.14384	1036.23242				-725.85803	196.55074	537.09521	-764.68268	-79.09254	871.09253	
